<svg xmlns="http://www.w3.org/2000/svg" viewBox="0 0 24 24" fill="none">
  <path
    d="M20.52 3.48A11.88 11.88 0 0 0 12.06 0C5.43 0 .03 5.4.03 12.03c0 2.12.56 4.2 1.62 6.02L0 24l6.12-1.6a12 12 0 0 0 5.9 1.5h.01c6.63 0 12.03-5.4 12.03-12.03 0-3.21-1.25-6.22-3.54-8.39Z"
    fill="#25D366"
  />
  <path
    d="M12.03 21.84h-.01a9.8 9.8 0 0 1-5.01-1.37l-.36-.21-3.63.95.97-3.55-.24-.37a9.78 9.78 0 0 1-1.5-5.26c0-5.4 4.39-9.8 9.79-9.8 2.62 0 5.08 1.02 6.93 2.88a9.73 9.73 0 0 1 2.87 6.92c0 5.4-4.39 9.8-9.8 9.8Z"
    fill="#fff"
  />
  <path
    d="M17.4 14.26c-.29-.14-1.7-.84-1.96-.93-.26-.1-.45-.15-.64.14-.19.29-.73.93-.9 1.12-.17.2-.34.22-.63.08-.29-.14-1.22-.45-2.32-1.43-.86-.77-1.43-1.72-1.6-2.01-.17-.29-.02-.45.13-.6.13-.13.29-.34.43-.51.14-.17.19-.29.29-.48.1-.2.05-.37-.02-.51-.08-.14-.64-1.54-.88-2.1-.23-.56-.47-.49-.64-.5h-.55c-.2 0-.51.07-.78.37-.26.29-1 1-1 2.44 0 1.44 1.03 2.82 1.17 3.01.15.2 2.03 3.1 4.92 4.35.69.3 1.23.48 1.65.62.69.22 1.31.19 1.8.12.55-.08 1.7-.69 1.94-1.36.24-.67.24-1.25.17-1.36-.08-.12-.27-.19-.56-.33Z"
    fill="#25D366"
  />
</svg>
